HIERARCHY
ROOT Hips
{
  OFFSET 90.7885 88.945 -76.2838
  CHANNELS 6 Xposition Yposition Zposition Zrotation Xrotation Yrotation
  JOINT LeftUpLeg
  {
    OFFSET 8.64259 1.95398 -2.38835
    CHANNELS 3 Zrotation Xrotation Yrotation
    JOINT LeftLeg
    {
      OFFSET 43.7702 0 0
      CHANNELS 3 Zrotation Xrotation Yrotation
      JOINT LeftFoot
      {
        OFFSET 40.6238 0 0
        CHANNELS 3 Zrotation Xrotation Yrotation
        JOINT LeftToeBase
        {
          OFFSET 12.7242 0 0
          CHANNELS 3 Zrotation Xrotation Yrotation
          End Site
          {
            OFFSET 0 0 0
          }
        }
      }
    }
  }
  JOINT RightUpLeg
  {
    OFFSET -8.2249 1.95398 -2.59336
    CHANNELS 3 Zrotation Xrotation Yrotation
    JOINT RightLeg
    {
      OFFSET 43.5653 0 0
      CHANNELS 3 Zrotation Xrotation Yrotation
      JOINT RightFoot
      {
        OFFSET 40.6238 0 0
        CHANNELS 3 Zrotation Xrotation Yrotation
        JOINT RightToeBase
        {
          OFFSET 12.7242 0 0
          CHANNELS 3 Zrotation Xrotation Yrotation
          End Site
          {
            OFFSET 0 0 0
          }
        }
      }
    }
  }
  JOINT Spine
  {
    OFFSET 0.165834 0.87714 6.61349
    CHANNELS 3 Zrotation Xrotation Yrotation
    JOINT Spine1
    {
      OFFSET 7.38963 1.71661e-005 0
      CHANNELS 3 Zrotation Xrotation Yrotation
      JOINT Spine2
      {
        OFFSET 11.9445 1.14441e-005 0
        CHANNELS 3 Zrotation Xrotation Yrotation
        JOINT Spine3
        {
          OFFSET 14.7254 4.19617e-005 0
          CHANNELS 3 Zrotation Xrotation Yrotation
          JOINT Spine4
          {
            OFFSET 10.9679 0 0
            CHANNELS 3 Zrotation Xrotation Yrotation
            JOINT RightShoulder
            {
              OFFSET 2.46616 -1.6653 3.69651
              CHANNELS 3 Zrotation Xrotation Yrotation
              JOINT RightArm
              {
                OFFSET 13.0012 0 0
                CHANNELS 3 Zrotation Xrotation Yrotation
                JOINT RightForeArm
                {
                  OFFSET 28.7848 1.52588e-005 0
                  CHANNELS 3 Zrotation Xrotation Yrotation
                  JOINT RightHand
                  {
                    OFFSET 26.5688 1.52588e-005 0
                    CHANNELS 3 Zrotation Xrotation Yrotation
                    End Site
                    {
                      OFFSET 0 0 0
                    }
                  }
                }
              }
            }
            JOINT LeftShoulder
            {
              OFFSET 2.38034 -1.29275 -3.7523
              CHANNELS 3 Zrotation Xrotation Yrotation
              JOINT LeftArm
              {
                OFFSET 16.3182 6.10352e-005 0
                CHANNELS 3 Zrotation Xrotation Yrotation
                JOINT LeftForeArm
                {
                  OFFSET 27.0901 0 0
                  CHANNELS 3 Zrotation Xrotation Yrotation
                  JOINT LeftHand
                  {
                    OFFSET 24.5451 1.52588e-005 0
                    CHANNELS 3 Zrotation Xrotation Yrotation
                    End Site
                    {
                      OFFSET 0 0 0
                    }
                  }
                }
              }
            }
            JOINT Neck
            {
              OFFSET 5.0226 -0.0266342 0
              CHANNELS 3 Zrotation Xrotation Yrotation
              JOINT Head
              {
                OFFSET 6.69363 2.86102e-005 0
                CHANNELS 3 Zrotation Xrotation Yrotation
                End Site
                {
                  OFFSET 0 0 0
                }
              }
            }
          }
        }
      }
    }
  }
}
MOTION
Frames:	14
Frame Time:	0.0416667
43.4815 80.7455 11.2914 88.836 -27.0276 99.4399 -157.553 29.8325 77.5078 -63.7348 5.92154 -16.1399 87.0412 12.2211 2.73681 6.75666 19.3239 -15.7633 -176.135 17.3751 75.6084 -80.6165 -26.1415 -7.67433 76.0447 -7.88674 -0.222998 22.6297 -1.62483 4.67521 0.287638 8.54629 -92.5206 9.74321 -0.56695 -4.95433 -1.93692 -0.784197 -4.92469 -24.3979 0.946353 -4.89619 -4.38528 0.946376 -4.89618 91.996 -28.15 -103.396 20.9608 -21.4748 -24.5915 -34.2941 -14.6393 -72.4525 -29.7659 0.899485 -17.5337 -87.122 -50.2175 83.0819 -26.6015 25.8198 20.9295 27.9841 1.90368 -62.368 13.647 -0.321771 -6.01878 21.6266 27.1638 1.4393 -19.2065 23.2459 19.4068 
46.5387 80.9602 11.8768 88.0695 -21.1207 96.8852 -159.987 24.4561 75.6486 -58.9836 11.2831 -16.1452 88.2975 14.5161 8.06332 9.39471 24.4113 -21.9463 -168.338 19.1982 74.4922 -89.4231 -11.1477 -7.35794 78.6308 -9.70613 -4.21815 12.7061 -2.30491 6.68737 -0.0510941 8.61721 -92.1437 9.60107 -1.06915 -4.16843 -2.07594 -1.25143 -4.11747 -24.5575 0.231818 -4.29688 -4.54486 0.231787 -4.2969 91.1408 -30.1392 -104.443 24.5793 -13.5371 -15.4848 -29.5131 -16.6406 -67.3802 -29.4244 1.05254 -17.5763 -88.0225 -52.3681 82.1108 -18.4484 23.8285 8.45953 26.5639 3.12114 -60.1171 18.1747 -0.353861 -5.8265 23.7994 27.7585 2.05586 -18.009 23.996 17.2434 
49.3688 81.1561 12.137 87.015 -14.5388 95.6021 -162.605 20.9126 75.4203 -58.2376 11.9987 -15.1781 90.4491 13.9418 2.39436 2.20508 26.82 -20.531 -160.974 22.4938 73.6429 -97.4399 -2.32464 -5.94352 82.6541 -12.2502 -6.18347 6.66253 -2.66734 7.61361 -0.461197 8.63091 -91.9746 9.56656 -1.80993 -3.77655 -2.10836 -1.97427 -3.69338 -24.6013 -0.592357 -4.14526 -4.58864 -0.592349 -4.14525 91.0889 -31.1815 -104.186 27.0323 -6.30819 -6.46135 -29.7611 -21.6058 -65.1301 -28.9116 0.547696 -16.4848 -88.5129 -54.0446 81.6931 -11.4272 19.5533 -1.02315 28.0709 2.32456 -63.5977 18.1775 -0.838516 -8.49434 24.897 28.3162 3.28182 -16.8863 24.4606 15.2966 
52.0609 81.1471 12.4041 85.4981 -7.60322 95.1128 -164.704 17.877 75.6486 -55.9359 17.5417 -14.5273 91.2375 15.1861 4.82323 1.60193 30.8255 -23.7347 -155.186 27.7957 71.3113 -103.438 -0.121311 -4.48653 85.9733 -14.107 -6.33728 7.70378 -1.77399 6.21863 -0.829856 8.63137 -91.9366 9.55653 -2.52769 -3.64654 -2.11677 -2.68562 -3.53192 -24.6178 -1.31603 -4.23663 -4.60512 -1.31602 -4.23663 92.0934 -31.4415 -102.132 28.898 -1.08588 1.51098 -27.9919 -24.1004 -60.8963 -28.8225 0.86501 -18.14 -88.9322 -53.2885 80.9531 -7.45376 14.4502 -9.57423 28.6669 -0.18557 -69.4643 17.5128 -0.910847 -9.03931 27.1975 28.5511 3.14865 -16.2873 24.7243 14.7711 
55.0837 80.8166 12.911 84.6887 -0.466218 95.5152 -166.622 14.4571 76.8092 -55.8274 20.7041 -12.735 93.6408 15.9047 3.1628 -0.757314 32.7026 -24.0398 -151.775 34.1723 68.6895 -106.555 -2.42814 -3.68732 87.0864 -15.0106 -7.60546 9.96089 -2.49072 7.18938 -1.25961 8.80261 -91.9479 9.202 -3.3844 -3.61646 -2.46917 -3.54018 -3.46412 -24.9807 -2.14227 -4.46516 -4.96807 -2.14228 -4.46517 92.4893 -31.3981 -101.367 30.4426 3.75361 9.55927 -25.9224 -25.8667 -57.5108 -30.1029 0.792461 -17.1412 -89.5434 -51.2814 79.6725 -3.73115 7.62506 -18.1914 27.9647 -2.79178 -75.625 17.0844 -0.944748 -9.33456 31.2229 28.1103 1.44694 -16.6363 24.5907 15.31 
58.5434 80.6608 13.2352 84.389 6.24663 95.955 -169.03 11.1417 78.4546 -56.4538 23.644 -10.0166 94.407 16.0284 2.169 -1.45129 33.9894 -24.7231 -150.639 40.8741 66.5977 -105.46 -1.80655 -3.69768 91.0265 -15.9015 -3.95323 8.84311 -1.26536 5.36482 -1.66627 8.89905 -91.9845 8.99581 -4.20881 -3.63849 -2.67291 -4.36478 -3.44975 -25.1973 -2.92205 -4.73391 -5.18468 -2.92206 -4.73392 92.5756 -31.0357 -101.306 32.0788 8.83948 19.3542 -23.9443 -26.1223 -55.1146 -29.3202 0.863561 -17.3339 -89.9887 -48.3055 78.3736 -1.08775 -0.545934 -24.5688 26.6201 -5.25544 -82.9365 14.4362 -1.03611 -10.7727 33.1 26.9673 -0.672809 -16.5781 24.1382 16.0881 
62.4765 80.4513 13.187 83.4329 11.3468 97.3539 -171.32 7.39915 80.3021 -55.0603 25.6535 -7.25103 95.5797 16.6515 2.19484 4.05252 31.9225 -26.101 -151.073 48.5312 65.1942 -100.127 -2.43746 -4.3655 93.3656 -16.1535 -1.35135 13.4472 -1.22688 4.86337 -1.98225 8.92817 -92.117 8.92112 -4.8971 -3.85785 -2.74568 -5.06204 -3.6385 -25.278 -3.51289 -5.14989 -5.26534 -3.51286 -5.14989 92.9407 -30.6813 -100.685 33.0793 11.4478 27.6812 -23.0357 -25.1449 -54.7323 -28.9779 1.35128 -19.2882 -89.579 -45.4867 78.3757 0.521345 -9.10046 -30.5546 26.8394 -6.07094 -88.9507 15.73 -1.24329 -11.5971 34.7456 26.1351 -2.93421 -17.5904 23.9931 16.9356 
67.2845 81.0177 12.3596 82.4717 14.2299 99.5465 -172.717 2.69169 82.5826 -49.9403 33.1441 -5.53862 89.7022 16.4657 10.1758 14.5413 27.339 -27.9886 -154.699 54.7265 67.7647 -90.0997 -3.20984 -5.2447 93.3347 -15.0548 2.06471 16.694 0.327185 1.71679 -2.17443 8.99537 -92.3977 8.76047 -5.40247 -4.38855 -2.90585 -5.59019 -4.14646 -25.4331 -3.83616 -5.8072 -5.42046 -3.83612 -5.80719 93.5465 -30.1245 -99.6305 33.5822 11.4965 33.7091 -22.2095 -22.6307 -55.1992 -28.9192 1.69795 -20.1043 -88.6296 -42.6527 79.2506 -1.70975 -17.3254 -36.5433 24.7373 -5.89419 -93.0902 17.6973 -1.02906 -9.65434 36.1999 26.3648 -2.58881 -18.0292 24.1173 15.993 
72.7312 81.8948 10.5959 81.5485 14.7384 100.754 -175.476 -2.2964 82.1869 -43.6211 31.7648 -3.30921 83.4158 13.9341 13.5667 24.5603 26.7839 -33.8882 -159.315 57.9111 71.8742 -77.6662 -8.82602 -5.97212 90.7926 -12.9923 5.80634 20.8852 0.758884 0.153967 -2.21635 8.94855 -92.5926 8.83925 -5.57393 -4.75843 -2.82756 -5.77774 -4.50852 -25.3462 -3.88915 -6.21079 -5.33355 -3.88914 -6.21079 93.4653 -29.7664 -99.8931 32.4723 10.3668 38.4019 -25.4337 -23.4852 -58.5984 -28.2769 1.68163 -21.4082 -88.023 -39.2223 79.4906 -8.45886 -22.2511 -39.086 23.5607 -5.54602 -97.901 16.7763 -0.899712 -9.17647 36.5478 26.7032 -1.97992 -18.3978 24.183 15.6197 
78.7945 82.8563 8.30457 80.9944 14.6226 102.122 -178.197 -6.27129 81.7296 -38.6372 25.4006 -0.516263 73.5314 6.96522 7.02728 28.4818 22.8428 -31.835 -165.789 56.9498 78.5471 -65.1198 -20.2508 -6.10983 89.5545 -13.3571 3.62715 22.2654 0.726211 -0.0999992 -2.16893 8.84487 -92.8206 9.03064 -5.58494 -5.19774 -2.63771 -5.808 -4.94707 -25.1402 -3.76844 -6.6321 -5.12756 -3.76844 -6.63211 93.2203 -29.4247 -100.491 31.4886 6.75908 40.2457 -26.7368 -22.4389 -60.1987 -27.3803 1.90908 -23.2968 -87.6306 -39.3896 80.1943 -10.1135 -20.6484 -39.6583 22.7205 -6.64313 -100.975 18.1573 -0.859933 -8.61608 36.3703 26.9175 -1.19119 -18.8515 24.0876 14.9998 
84.8231 83.2456 6.04512 80.9968 14.0675 102.906 -178.616 -7.83552 81.942 -38.0601 25.1213 0.39789 62.7703 1.57815 5.32504 29.5854 15.7652 -22.9435 -170.893 53.4 84.6611 -55.0688 -25.8249 -5.7405 87.3677 -13.2538 0.537793 21.3979 1.23404 -0.919997 -2.02011 8.784 -92.8933 9.15246 -5.3232 -5.35324 -2.51762 -5.55335 -5.11406 -25.008 -3.47232 -6.70142 -4.9953 -3.47233 -6.70141 92.1955 -30.2131 -102.314 29.0234 2.2045 39.3623 -29.6932 -22.6797 -63.372 -29.7675 1.8806 -22.4439 -87.5744 -41.3195 80.7042 -9.58315 -13.6896 -37.8972 25.3293 -9.56108 -102.98 19.6889 -0.907777 -8.56053 37.4582 26.7159 -1.55862 -19.8981 24.0785 13.8263 
89.8929 82.703 4.22553 80.95 13.4678 102.707 -177.078 -4.36228 82.4041 -45.6903 27.0891 0.279265 54.9755 -1.98091 1.9045 27.7103 3.98354 -5.63935 -167.869 52.8979 83.9776 -58.1324 -30.5362 -8.13418 75.0679 -7.02593 2.9668 27.4445 -0.30741 0.853405 -1.82493 8.7242 -92.718 9.29286 -4.85816 -5.0312 -2.3779 -5.07464 -4.81278 -24.8705 -3.12484 -6.25525 -4.85779 -3.12484 -6.25526 91.6158 -27.9595 -104.245 29.2645 1.18157 34.2068 -33.8628 -22.6349 -66.1863 -30.1006 1.3028 -20.7064 -88.2377 -44.7248 80.3373 -8.22061 -2.71465 -32.7622 28.5241 -13.2221 -102.749 16.893 -0.913336 -9.20738 39.3583 26.1118 -2.7351 -20.2814 24.0016 13.4337 
95.076 81.4015 2.41202 82.0895 14.2316 102.562 -173.87 2.97499 83.823 -64.9396 30.131 1.47982 53.587 -2.60109 2.57883 34.3309 4.20476 -7.92893 -165.167 49.2305 83.2449 -62.4536 -20.7361 -8.59919 82.3212 -10.02 4.57246 34.4463 -0.591808 0.00177423 -1.50214 8.80297 -92.4737 9.16572 -4.10288 -4.60779 -2.50628 -4.30153 -4.423 -24.9997 -2.53088 -5.62532 -4.98709 -2.53089 -5.62532 90.2851 -29.1634 -106.512 25.4881 0.747345 28.3648 -35.9175 -21.1845 -69.6565 -32.4482 1.12479 -18.9344 -89.9651 -47.7883 78.2986 -9.09359 9.01044 -26.2077 30.201 -14.4041 -98.8389 15.6269 -1.00122 -10.1391 40.4228 24.7119 -2.24824 -19.042 22.7611 11.9202 
99.5691 80.9518 0.433011 83.196 15.8291 103.994 -170.628 13.3277 87.0253 -84.5651 29.6696 4.24779 56.6444 -1.24778 4.25025 27.3782 5.5475 -7.62066 -167.241 45.5418 85.5036 -64.5484 -17.8711 -7.69144 87.2666 -11.7979 5.90182 32.8034 -0.106055 -0.784853 -1.02667 8.85414 -92.3923 9.08157 -3.11667 -4.5195 -2.59301 -3.31238 -4.37824 -25.0755 -1.61646 -5.24535 -5.06283 -1.61646 -5.24536 89.7814 -30.0656 -107.164 21.1097 -1.07421 20.2761 -40.709 -21.7127 -73.4561 -33.6889 0.712321 -18.0591 -90.8387 -51.5766 77.827 -10.9989 20.1188 -19.9139 31.3863 -12.5071 -89.564 11.9256 -0.850826 -10.4107 39.8495 22.938 -0.973326 -16.765 20.8859 10.2692 
